<svg width="32" height="32" viewBox="0 0 32 32" fill="none" xmlns="http://www.w3.org/2000/svg">
<path fill-rule="evenodd" clip-rule="evenodd" d="M3.85746e-07 3.02402C3.85746e-07 2.33285 0.274565 1.66999 0.763294 1.18127C1.25202 0.692537 1.91488 0.417972 2.60605 0.417972H28.5843C28.9268 0.417413 29.2661 0.484418 29.5827 0.615151C29.8993 0.745884 30.187 0.937778 30.4293 1.17985C30.6716 1.42191 30.8638 1.7094 30.9949 2.02585C31.126 2.3423 31.1934 2.6815 31.1932 3.02402V29.0023C31.1935 29.3448 31.1264 29.6841 30.9955 30.0007C30.8646 30.3173 30.6726 30.605 30.4304 30.8473C30.1882 31.0897 29.9006 31.2818 29.5841 31.4129C29.2676 31.544 28.9283 31.6113 28.5857 31.6111H2.60605C2.2637 31.6111 1.9247 31.5437 1.60843 31.4126C1.29216 31.2816 1.0048 31.0895 0.762792 30.8473C0.52078 30.6052 0.32885 30.3177 0.197967 30.0014C0.0670841 29.6851 -0.000185877 29.346 3.85746e-07 29.0037V3.02402ZM12.3468 12.3111H16.5707V14.4322C17.1803 13.2128 18.74 12.1154 21.0837 12.1154C25.577 12.1154 26.6418 14.5442 26.6418 19.0006V27.2554H22.0947V20.0158C22.0947 17.4778 21.485 16.0458 19.9367 16.0458C17.7886 16.0458 16.8954 17.5898 16.8954 20.0158V27.2554H12.3468V12.3111ZM4.54853 27.0612H9.09706V12.1154H4.54853V27.0598V27.0612ZM9.74787 7.24077C9.75644 7.63022 9.68714 8.01746 9.54403 8.37977C9.40092 8.74207 9.18689 9.07214 8.91449 9.35061C8.64208 9.62907 8.31681 9.85032 7.95774 10.0014C7.59867 10.1524 7.21305 10.2302 6.82351 10.2302C6.43396 10.2302 6.04834 10.1524 5.68927 10.0014C5.33021 9.85032 5.00493 9.62907 4.73253 9.35061C4.46013 9.07214 4.24609 8.74207 4.10298 8.37977C3.95987 8.01746 3.89057 7.63022 3.89915 7.24077C3.91598 6.47633 4.23147 5.74887 4.77806 5.21419C5.32465 4.6795 6.05888 4.3801 6.82351 4.3801C7.58813 4.3801 8.32236 4.6795 8.86895 5.21419C9.41554 5.74887 9.73103 6.47633 9.74787 7.24077V7.24077Z" fill="#998656"/>
</svg>
