<svg width="35" height="34" viewBox="0 0 35 34" fill="none" xmlns="http://www.w3.org/2000/svg">
<path fill-rule="evenodd" clip-rule="evenodd" d="M17.2078 0C7.80733 0 0.193359 7.61397 0.193359 17.0145C0.193359 24.5434 5.06375 30.9025 11.827 33.1569C12.6777 33.3058 12.9967 32.7954 12.9967 32.3487C12.9967 31.9446 12.9755 30.6048 12.9755 29.1798C8.70059 29.9667 7.59465 28.1377 7.25436 27.1806C7.06294 26.6914 6.23349 25.1814 5.51038 24.7773C4.91487 24.4583 4.06415 23.6714 5.48911 23.6501C6.829 23.6288 7.78606 24.8836 8.10508 25.3941C9.63638 27.9675 12.0822 27.2444 13.0605 26.7978C13.2094 25.6918 13.656 24.9474 14.1452 24.5221C10.3595 24.0967 6.40364 22.6292 6.40364 16.1212C6.40364 14.2709 7.06295 12.7396 8.14762 11.5486C7.97747 11.1232 7.38197 9.37922 8.31776 7.03973C8.31776 7.03973 9.74272 6.5931 12.9967 8.78371C14.3579 8.40089 15.8041 8.20947 17.2503 8.20947C18.6966 8.20947 20.1428 8.40089 21.504 8.78371C24.758 6.57183 26.1829 7.03973 26.1829 7.03973C27.1187 9.37922 26.5232 11.1232 26.3531 11.5486C27.4378 12.7396 28.0971 14.2496 28.0971 16.1212C28.0971 22.6505 24.1199 24.0967 20.3342 24.5221C20.951 25.0538 21.4827 26.0747 21.4827 27.6698C21.4827 29.9454 21.4614 31.7745 21.4614 32.3487C21.4614 32.7954 21.7804 33.3271 22.6312 33.1569C26.0088 32.0166 28.9438 29.8457 31.0231 26.95C33.1024 24.0543 34.2212 20.5794 34.2223 17.0145C34.2223 7.61397 26.6083 0 17.2078 0Z" fill="#DDDDDD"/>
</svg>
